<mxfile host="app.diagrams.net" modified="2024-06-12T03:20:06.256Z" agent="Mozilla/5.0 (Windows NT 10.0; Win64; x64) AppleWebKit/537.36 (KHTML, like Gecko) Chrome/125.0.0.0 Safari/537.36" etag="KuSWImlh7r-NiI2c2K-U" version="24.5.3" type="github">
  <diagram id="R2lEEEUBdFMjLlhIrx00" name="Page-1">
    <mxGraphModel dx="2085" dy="665" grid="1" gridSize="10" guides="1" tooltips="1" connect="1" arrows="1" fold="1" page="1" pageScale="1" pageWidth="850" pageHeight="1100" math="0" shadow="0" extFonts="Permanent Marker^https://fonts.googleapis.com/css?family=Permanent+Marker">
      <root>
        <mxCell id="0" />
        <mxCell id="1" parent="0" />
        <mxCell id="a6z9oGoyvh4kOEtz0thW-4" value="" style="rounded=0;whiteSpace=wrap;html=1;" vertex="1" parent="1">
          <mxGeometry x="190" y="240" width="110" height="70" as="geometry" />
        </mxCell>
        <mxCell id="a6z9oGoyvh4kOEtz0thW-5" value="" style="rounded=0;whiteSpace=wrap;html=1;" vertex="1" parent="1">
          <mxGeometry x="580" y="240" width="110" height="70" as="geometry" />
        </mxCell>
        <mxCell id="a6z9oGoyvh4kOEtz0thW-6" value="" style="rounded=0;whiteSpace=wrap;html=1;" vertex="1" parent="1">
          <mxGeometry x="190" y="540" width="110" height="70" as="geometry" />
        </mxCell>
        <mxCell id="a6z9oGoyvh4kOEtz0thW-7" value="" style="rounded=0;whiteSpace=wrap;html=1;" vertex="1" parent="1">
          <mxGeometry x="580" y="540" width="110" height="70" as="geometry" />
        </mxCell>
        <mxCell id="a6z9oGoyvh4kOEtz0thW-8" value="" style="rounded=0;whiteSpace=wrap;html=1;" vertex="1" parent="1">
          <mxGeometry x="370" y="400" width="110" height="70" as="geometry" />
        </mxCell>
        <mxCell id="a6z9oGoyvh4kOEtz0thW-9" value="&lt;b&gt;&lt;span style=&quot;font-size:12.0pt;&lt;br/&gt;mso-bidi-font-size:18.0pt;font-family:&amp;quot;Times New Roman&amp;quot;,serif;mso-fareast-font-family:&lt;br/&gt;宋体;mso-font-kerning:1.0pt;mso-ansi-language:EN-US;mso-fareast-language:ZH-CN;&lt;br/&gt;mso-bidi-language:AR-SA&quot; lang=&quot;EN-US&quot;&gt;username&amp;nbsp;&lt;/span&gt;&lt;/b&gt;" style="ellipse;whiteSpace=wrap;html=1;" vertex="1" parent="1">
          <mxGeometry x="60" y="130" width="90" height="50" as="geometry" />
        </mxCell>
        <mxCell id="a6z9oGoyvh4kOEtz0thW-10" value="" style="endArrow=none;html=1;rounded=0;entryX=0.5;entryY=1;entryDx=0;entryDy=0;exitX=0;exitY=0;exitDx=0;exitDy=0;" edge="1" parent="1" source="a6z9oGoyvh4kOEtz0thW-4" target="a6z9oGoyvh4kOEtz0thW-9">
          <mxGeometry width="50" height="50" relative="1" as="geometry">
            <mxPoint x="60" y="380" as="sourcePoint" />
            <mxPoint x="110" y="330" as="targetPoint" />
          </mxGeometry>
        </mxCell>
        <mxCell id="a6z9oGoyvh4kOEtz0thW-12" value="&lt;b&gt;&lt;span style=&quot;font-size:12.0pt;&lt;br/&gt;mso-bidi-font-size:18.0pt;font-family:&amp;quot;Times New Roman&amp;quot;,serif;mso-fareast-font-family:&lt;br/&gt;宋体;mso-font-kerning:1.0pt;mso-ansi-language:EN-US;mso-fareast-language:ZH-CN;&lt;br/&gt;mso-bidi-language:AR-SA&quot; lang=&quot;EN-US&quot;&gt;password&amp;nbsp;&lt;/span&gt;&lt;/b&gt;" style="ellipse;whiteSpace=wrap;html=1;" vertex="1" parent="1">
          <mxGeometry x="180" y="130" width="90" height="50" as="geometry" />
        </mxCell>
        <mxCell id="a6z9oGoyvh4kOEtz0thW-13" value="&lt;b&gt;&lt;span style=&quot;font-size:12.0pt;&lt;br/&gt;mso-bidi-font-size:18.0pt;font-family:&amp;quot;Times New Roman&amp;quot;,serif;mso-fareast-font-family:&lt;br/&gt;宋体;mso-font-kerning:1.0pt;mso-ansi-language:EN-US;mso-fareast-language:ZH-CN;&lt;br/&gt;mso-bidi-language:AR-SA&quot; lang=&quot;EN-US&quot;&gt;id&amp;nbsp;&lt;/span&gt;&lt;/b&gt;" style="ellipse;whiteSpace=wrap;html=1;" vertex="1" parent="1">
          <mxGeometry x="30" y="210" width="90" height="50" as="geometry" />
        </mxCell>
        <mxCell id="a6z9oGoyvh4kOEtz0thW-14" value="&lt;b&gt;&lt;span style=&quot;font-size:12.0pt;&lt;br/&gt;mso-bidi-font-size:18.0pt;font-family:&amp;quot;Times New Roman&amp;quot;,serif;mso-fareast-font-family:&lt;br/&gt;宋体;mso-font-kerning:1.0pt;mso-ansi-language:EN-US;mso-fareast-language:ZH-CN;&lt;br/&gt;mso-bidi-language:AR-SA&quot; lang=&quot;EN-US&quot;&gt;id&amp;nbsp;&lt;/span&gt;&lt;/b&gt;" style="ellipse;whiteSpace=wrap;html=1;" vertex="1" parent="1">
          <mxGeometry x="-20" y="500" width="90" height="50" as="geometry" />
        </mxCell>
        <mxCell id="a6z9oGoyvh4kOEtz0thW-15" value="&lt;b&gt;&lt;span style=&quot;font-size:12.0pt;&lt;br/&gt;mso-bidi-font-size:18.0pt;font-family:&amp;quot;Times New Roman&amp;quot;,serif;mso-fareast-font-family:&lt;br/&gt;宋体;mso-font-kerning:1.0pt;mso-ansi-language:EN-US;mso-fareast-language:ZH-CN;&lt;br/&gt;mso-bidi-language:AR-SA&quot; lang=&quot;EN-US&quot;&gt;user_id&lt;/span&gt;&lt;/b&gt;" style="ellipse;whiteSpace=wrap;html=1;" vertex="1" parent="1">
          <mxGeometry x="20" y="590" width="90" height="50" as="geometry" />
        </mxCell>
        <mxCell id="a6z9oGoyvh4kOEtz0thW-16" value="&lt;b&gt;&lt;span style=&quot;font-size:12.0pt;&lt;br/&gt;mso-bidi-font-size:18.0pt;font-family:&amp;quot;Times New Roman&amp;quot;,serif;mso-fareast-font-family:&lt;br/&gt;宋体;mso-font-kerning:1.0pt;mso-ansi-language:EN-US;mso-fareast-language:ZH-CN;&lt;br/&gt;mso-bidi-language:AR-SA&quot; lang=&quot;EN-US&quot;&gt;uploaded_at&lt;/span&gt;&lt;/b&gt;" style="ellipse;whiteSpace=wrap;html=1;" vertex="1" parent="1">
          <mxGeometry x="80" y="700" width="90" height="50" as="geometry" />
        </mxCell>
        <mxCell id="a6z9oGoyvh4kOEtz0thW-17" value="&lt;b&gt;&lt;span style=&quot;font-size:12.0pt;&lt;br/&gt;mso-bidi-font-size:18.0pt;font-family:&amp;quot;Times New Roman&amp;quot;,serif;mso-fareast-font-family:&lt;br/&gt;宋体;mso-font-kerning:1.0pt;mso-ansi-language:EN-US;mso-fareast-language:ZH-CN;&lt;br/&gt;mso-bidi-language:AR-SA&quot; lang=&quot;EN-US&quot;&gt;email&amp;nbsp;&lt;/span&gt;&lt;/b&gt;" style="ellipse;whiteSpace=wrap;html=1;" vertex="1" parent="1">
          <mxGeometry x="300" y="130" width="90" height="50" as="geometry" />
        </mxCell>
        <mxCell id="a6z9oGoyvh4kOEtz0thW-18" value="" style="endArrow=none;html=1;rounded=0;exitX=0;exitY=0.429;exitDx=0;exitDy=0;exitPerimeter=0;" edge="1" parent="1" source="a6z9oGoyvh4kOEtz0thW-4" target="a6z9oGoyvh4kOEtz0thW-13">
          <mxGeometry width="50" height="50" relative="1" as="geometry">
            <mxPoint x="200" y="250" as="sourcePoint" />
            <mxPoint x="115" y="190" as="targetPoint" />
          </mxGeometry>
        </mxCell>
        <mxCell id="a6z9oGoyvh4kOEtz0thW-19" value="" style="endArrow=none;html=1;rounded=0;exitX=0.5;exitY=0;exitDx=0;exitDy=0;entryX=0.451;entryY=1.07;entryDx=0;entryDy=0;entryPerimeter=0;" edge="1" parent="1" source="a6z9oGoyvh4kOEtz0thW-4" target="a6z9oGoyvh4kOEtz0thW-12">
          <mxGeometry width="50" height="50" relative="1" as="geometry">
            <mxPoint x="200" y="280" as="sourcePoint" />
            <mxPoint x="125" y="257" as="targetPoint" />
          </mxGeometry>
        </mxCell>
        <mxCell id="a6z9oGoyvh4kOEtz0thW-20" value="" style="endArrow=none;html=1;rounded=0;exitX=1;exitY=0;exitDx=0;exitDy=0;entryX=0.5;entryY=1;entryDx=0;entryDy=0;" edge="1" parent="1" source="a6z9oGoyvh4kOEtz0thW-4" target="a6z9oGoyvh4kOEtz0thW-17">
          <mxGeometry width="50" height="50" relative="1" as="geometry">
            <mxPoint x="255" y="250" as="sourcePoint" />
            <mxPoint x="260" y="190" as="targetPoint" />
          </mxGeometry>
        </mxCell>
        <mxCell id="a6z9oGoyvh4kOEtz0thW-21" value="&lt;b&gt;&lt;span style=&quot;font-size:12.0pt;&lt;br/&gt;mso-bidi-font-size:18.0pt;font-family:&amp;quot;Times New Roman&amp;quot;,serif;mso-fareast-font-family:&lt;br/&gt;宋体;mso-font-kerning:1.0pt;mso-ansi-language:EN-US;mso-fareast-language:ZH-CN;&lt;br/&gt;mso-bidi-language:AR-SA&quot; lang=&quot;EN-US&quot;&gt;data_format&amp;nbsp;&lt;/span&gt;&lt;/b&gt;" style="ellipse;whiteSpace=wrap;html=1;" vertex="1" parent="1">
          <mxGeometry x="180" y="760" width="90" height="50" as="geometry" />
        </mxCell>
        <mxCell id="a6z9oGoyvh4kOEtz0thW-22" value="&lt;b&gt;&lt;span style=&quot;font-size:12.0pt;&lt;br/&gt;mso-bidi-font-size:18.0pt;font-family:&amp;quot;Times New Roman&amp;quot;,serif;mso-fareast-font-family:&lt;br/&gt;宋体;mso-font-kerning:1.0pt;mso-ansi-language:EN-US;mso-fareast-language:ZH-CN;&lt;br/&gt;mso-bidi-language:AR-SA&quot; lang=&quot;EN-US&quot;&gt;description&amp;nbsp;&lt;/span&gt;&lt;/b&gt;" style="ellipse;whiteSpace=wrap;html=1;" vertex="1" parent="1">
          <mxGeometry x="300" y="700" width="90" height="50" as="geometry" />
        </mxCell>
        <mxCell id="a6z9oGoyvh4kOEtz0thW-23" value="&lt;b&gt;&lt;span style=&quot;font-size:12.0pt;&lt;br/&gt;mso-bidi-font-size:18.0pt;font-family:&amp;quot;Times New Roman&amp;quot;,serif;mso-fareast-font-family:&lt;br/&gt;宋体;mso-font-kerning:1.0pt;mso-ansi-language:EN-US;mso-fareast-language:ZH-CN;&lt;br/&gt;mso-bidi-language:AR-SA&quot; lang=&quot;EN-US&quot;&gt;preprocessed&amp;nbsp;&lt;/span&gt;&lt;/b&gt;" style="ellipse;whiteSpace=wrap;html=1;" vertex="1" parent="1">
          <mxGeometry x="335" y="600" width="90" height="50" as="geometry" />
        </mxCell>
        <mxCell id="a6z9oGoyvh4kOEtz0thW-24" value="&lt;b&gt;&lt;span style=&quot;font-size:12.0pt;&lt;br/&gt;mso-bidi-font-size:18.0pt;font-family:&amp;quot;Times New Roman&amp;quot;,serif;mso-fareast-font-family:&lt;br/&gt;宋体;mso-font-kerning:1.0pt;mso-ansi-language:EN-US;mso-fareast-language:ZH-CN;&lt;br/&gt;mso-bidi-language:AR-SA&quot; lang=&quot;EN-US&quot;&gt;id&amp;nbsp;&lt;/span&gt;&lt;/b&gt;" style="ellipse;whiteSpace=wrap;html=1;" vertex="1" parent="1">
          <mxGeometry x="680" y="670" width="90" height="50" as="geometry" />
        </mxCell>
        <mxCell id="a6z9oGoyvh4kOEtz0thW-25" value="" style="ellipse;whiteSpace=wrap;html=1;" vertex="1" parent="1">
          <mxGeometry x="710" y="590" width="90" height="50" as="geometry" />
        </mxCell>
        <mxCell id="a6z9oGoyvh4kOEtz0thW-26" value="" style="ellipse;whiteSpace=wrap;html=1;" vertex="1" parent="1">
          <mxGeometry x="720" y="510" width="90" height="50" as="geometry" />
        </mxCell>
        <mxCell id="a6z9oGoyvh4kOEtz0thW-27" value="" style="ellipse;whiteSpace=wrap;html=1;" vertex="1" parent="1">
          <mxGeometry x="590" y="730" width="90" height="50" as="geometry" />
        </mxCell>
      </root>
    </mxGraphModel>
  </diagram>
</mxfile>
